<svg enable-background="new 0 0 30 30" viewBox="0 0 30 30" xmlns="http://www.w3.org/2000/svg"><g clip-rule="evenodd" fill-rule="evenodd"><g transform="translate(21 8)"><path d="m-8.61-3.34c-.27.05-.6.29-.74.53 0 0-1.09 2.08-2.56 2.34s-3.21-1.32-3.21-1.32c-.25-.2-.56-.29-.88-.25l-1.14.21c-.28.05-.46.31-.41.58l3.01 16.99c.05.27.31.46.59.41l1.15-.21c.31-.07.57-.26.73-.53 0 0 1.1-2.08 2.56-2.33 1.46-.26 3.21 1.31 3.21 1.31.21.19.6.3.88.26l1.14-.21c.27-.05.46-.31.41-.58l-3.01-17c-.04-.26-.3-.45-.58-.4z" fill="#333"/><g fill="#fff"><path d="m-15.19 2.93.08-.05c.05-.03.12-.07.22-.12s.22-.11.36-.17c.13-.06.29-.13.46-.19.16-.07.35-.14.55-.2s.4-.13.62-.19.44-.12.67-.16c.69-.15 1.39-.26 2.1-.32.23-.02.45-.02.66-.03s.41-.01.59 0c.18 0 .35.01.5.02s.28.03.39.04l.25.04.09.02h.02c.02 0 .03.02.03.04s-.02.03-.03.03l-.32.06-.86.15-2.59.47-2.59.44-.85.13-.33.06c-.02.01-.03 0-.04-.02 0 0 0 0 0-.01 0-.02.01-.03.02-.03-.01 0 0-.01 0-.01z"/><path d="m-7.92 9.56-.04.04-.12.1c-.33.26-.7.46-1.1.59-.25.09-.51.16-.78.2-.13.02-.27.05-.4.05-.55.05-1.11 0-1.64-.15l-.15-.06-.05-.03-.02-.01c-.01-.01-.02-.02-.02-.04l.03-.02.18-.04.48-.1 1.47-.27 1.48-.22.49-.08.19-.03c.02 0 .03.01.03.03 0 .01 0 .02-.01.02 0 0-.02.02-.02.02z"/><path d="m-12.02 4.68c.06.5-.31.96-.81 1.01-.46.05-.88-.25-.99-.7-.06-.5.31-.96.81-1.01.46-.05.88.25.99.7"/><path d="m-8.21 4.01c.09.5-.25.97-.75 1.06s-.97-.25-1.06-.75c-.09-.5.25-.97.75-1.06.5-.08.97.26 1.06.75"/></g></g><g transform="translate(39 10)"><path d="m-14.02-2.65c-.27-.05-.67.07-.87.25 0 0-1.74 1.58-3.21 1.32s-2.56-2.34-2.56-2.34c-.16-.27-.43-.46-.73-.53l-1.15-.21c-.27-.05-.54.13-.59.41l-3.01 17c-.05.27.14.54.41.58l1.14.21c.27.05.67-.07.88-.26 0 0 1.74-1.57 3.21-1.31s2.56 2.33 2.56 2.33c.13.25.46.48.74.54l1.15.2c.27.05.54-.14.58-.41l3.01-16.99c.05-.27-.13-.54-.41-.59s-1.15-.2-1.15-.2z" fill="#fff"/><g fill="#333"><path d="m-22.35 1 .09-.02.25-.04c.11-.01.24-.03.39-.04.36-.03.73-.04 1.09-.02.21.01.42.01.65.03.22.02.45.04.69.07l.71.1.7.14c.92.21 1.81.51 2.67.92.1.05.17.09.22.12l.08.05h.01c.02.01.02.03.02.05-.01.01-.02.01-.04.01l-.32-.05-.86-.13-2.59-.44-2.58-.46-.85-.16-.32-.06c-.02 0-.03-.02-.03-.03 0-.02.02-.03.03-.03-.02-.01-.01-.01-.01-.01z"/><path d="m-17.79 9.7-.05.03c-.04.01-.09.04-.15.05-.4.13-.82.2-1.24.19-.13 0-.26-.01-.4-.02-.13-.01-.27-.04-.41-.05-.13-.03-.26-.05-.4-.09-.53-.14-1.04-.38-1.48-.71l-.12-.1-.04-.04-.02-.02c-.01-.01-.01-.03 0-.04.23.02.47.05.7.09l1.48.24 1.47.27.48.1.18.04c.02.01.03.02.03.04 0 .01-.01.02-.02.02.01-.01-.01 0-.01 0z"/><path d="m-19.98 3.72c-.12.49-.61.8-1.1.68-.46-.11-.76-.54-.7-1 .12-.49.61-.8 1.1-.68.45.1.76.53.7 1"/><path d="m-16.18 4.38c-.09.5-.53.35-1.03.26-.49-.08-.86-.08-.77-.57.09-.5.79-.46 1.29-.38.49.09.6.2.51.69"/></g></g></g></svg>