<svg enable-background="new 0 0 55.26 14.92" viewBox="0 0 55.26 14.92" xmlns="http://www.w3.org/2000/svg"><path d="m6.26.97h-2.08v10.3c0 1.38-.9 1.67-1.41 1.67-.43 0-.86-.23-1.14-.51l-1.63 1.25c.51.54 1.39 1.24 2.71 1.24 2.22 0 3.55-1.55 3.55-3.38zm7.86 6.98c0-.74.39-1.13 1.02-1.13s1.02.39 1.02 1.13v1.13h-2.04zm4.12-.04c0-1.73-1.18-3.07-3.1-3.07-.8 0-1.57.27-2.08.7-.55-.45-1.2-.7-2.06-.7-1.88 0-3.08 1.22-3.2 2.97h2.02c.12-.64.65-.99 1.18-.99.78 0 1.04.51 1.04 1.17v1.03c-.43-.02-.71-.06-1-.06-2.61 0-3.28 1.09-3.28 3.34 0 2.18 1.29 2.62 2.24 2.62 1.02 0 1.94-.47 2.43-1.4.41.76 1.35 1.42 2.71 1.4 1.82-.02 3.1-1.26 3.1-2.97h-2.08c-.04.43-.22.99-1.02.99-.63 0-1.02-.35-1.02-.97v-1.34h4.12zm-6.2 4c0 .8-.43 1.26-1.12 1.26-.67 0-1.08-.5-1.08-1.26 0-1.05.73-1.4 1.63-1.4.18 0 .35.02.57.06zm7.73 2.89h2.08v-5.84c0-1.61 1.24-2.14 2.12-2.14.22 0 .43.04.63.12v-2.1c-1.2 0-1.9.45-2.76 1.17v-1.06h-2.08v9.85zm5.67 0h2.08v-6.62c0-.87.27-1.36 1.04-1.36.65 0 1.02.45 1.02 1.17v6.82h2.08v-7.56c0-1.77-1.1-2.41-2.14-2.41-.96 0-1.53.45-1.96 1.07h-.04v-.96h-2.08zm8.77-12.82c0 1.07.94 1.98 2.08 1.98s2.08-.89 2.08-1.98c0-1.07-.94-1.98-2.08-1.98s-2.08.89-2.08 1.98m.84 0c0-.66.55-1.18 1.24-1.18s1.24.52 1.24 1.18-.55 1.19-1.24 1.19-1.24-.53-1.24-1.19m2.26 12.82h2.08v-6.85c0-2.06-1.39-3.11-3.12-3.11-.94 0-1.71.31-2.27.84-.55.52-.88 1.26-.94 2.14h2.02c.12-.64.65-.99 1.18-.99.77 0 1.04.51 1.04 1.17v1.03c-.43-.02-.71-.06-1-.06-2.61 0-3.28 1.09-3.28 3.34 0 2.18 1.28 2.62 2.24 2.62 1 0 1.45-.41 2-1.13h.04v1zm0-2.89c0 .8-.43 1.26-1.12 1.26-.67 0-1.08-.5-1.08-1.26 0-1.05.73-1.4 1.63-1.4.18 0 .35.02.57.06zm3.61-6.96h-1.04v1.55h1.04v5.98c0 1.05.63 2.31 2.51 2.31h.86v-1.86c-.92 0-1.29-.06-1.29-.97v-5.45h1.29v-1.56h-1.29v-2.99h-2.08zm4.16 0h-1.04v1.55h1.04v5.98c0 1.05.63 2.31 2.51 2.31h.86v-1.86c-.92 0-1.28-.06-1.28-.97v-5.45h1.28v-1.56h-1.28v-2.99h-2.08v2.99zm5-2.97c0 1.07.94 1.98 2.08 1.98s2.08-.89 2.08-1.98c0-1.07-.94-1.98-2.08-1.98s-2.08.89-2.08 1.98m.84 0c0-.66.55-1.18 1.24-1.18s1.24.52 1.24 1.18-.55 1.19-1.24 1.19-1.24-.53-1.24-1.19m2.26 12.82h2.08v-6.85c0-2.06-1.39-3.11-3.12-3.11-.94 0-1.71.31-2.26.84-.56.52-.88 1.26-.94 2.13h2.02c.12-.64.65-.99 1.18-.99.78 0 1.04.51 1.04 1.17v1.03c-.43-.02-.72-.06-1-.06-2.61 0-3.28 1.09-3.28 3.34 0 2.18 1.29 2.62 2.24 2.62 1 0 1.45-.41 2-1.13h.04zm0-2.89c0 .8-.43 1.26-1.12 1.26-.67 0-1.08-.5-1.08-1.26 0-1.05.73-1.4 1.63-1.4.18 0 .35.02.57.06z" fill="#fff"/></svg>