<svg enable-background="new 0 0 30 30" viewBox="0 0 30 30" xmlns="http://www.w3.org/2000/svg"><g fill="#fff"><path d="m14.64 23.75c-.47.02-.83-.13-1.12-.44-.46-.51-.6-1.16-.68-1.81-.03-.25-.03-.5-.06-.75-.02-.12-.06-.24-.13-.35-1.04-1.72-.92-3.93.31-5.52.46-.6 1.08-.96 1.76-1.25.32-.14.67-.2.99-.35.34-.16.66-.37.98-.56 1.66-.95 3.27-.79 4.83.24.91.61 1.53 1.45 1.88 2.5.06.19.26.33.39.49.34.42.72.82 1.01 1.28.3.47.37 1.01.09 1.54-.05.1-.13.19-.22.33-.07-.12-.11-.21-.17-.28-.24-.29-.44-.62-.73-.86-.63-.53-1.33-.47-2.02-.1-.7.38-1.38.81-2.07 1.21-.76.43-1.55.79-2.39 1.05-.62.2-1.24.42-1.85.68-.9.38-1.27 1.17-1.05 2.17.08.24.17.49.25.78zm4.75-11.3c.04.06.08.11.12.17.33.44.26.78-.11 1.08-.44.36-.43.99-.03 1.44.26.29.68.34 1 .12.47-.33.67-.94.49-1.48-.23-.71-.79-1.08-1.47-1.33zm-6.42 2.96c-.26.5-.23 1.36-.06 1.78.25.6.87.95 1.5.83.38-.07.61-.33.65-.69.05-.62-.54-1.18-1.15-1.09-.54.08-.76-.07-.88-.6-.02-.05-.04-.11-.06-.23z"/><path d="m21.07 23.42c-.34-.11-.56.09-.79.38-.74.91-1.72 1.2-2.85.99-.68-.13-1.31-.39-1.86-.81-.95-.73-.88-2.1.14-2.73.27-.17.59-.26.88-.4.7-.33 1.4-.66 2.1-.99.21-.1.43-.18.64-.28.75-.36 1.51-.72 2.25-1.1.55-.28 1.1-.4 1.69-.17.74.29 1.09.93 1 1.84-.09.83-.38 1.59-.91 2.24-.59.69-1.33 1.04-2.29 1.03z"/><path d="m22.59 12.5c-.03-.17-.04-.28-.08-.38-.11-.27-.17-.61-.37-.79-.43-.38-.58-.87-.69-1.39-.01-.06 0-.14.03-.2.22-.46.45-.91.66-1.37.64-1.41 1.55-2.56 3.05-3.14.21-.08.46-.09.69-.1.3 0 .52.16.6.45.36 1.25.56 2.51.35 3.8-.29 1.71-1.29 2.62-3.05 2.77-.41.05-.81.05-1.19.35zm2.97-3.43c.03 0 .05 0 .08.01.33-.8.48-1.62.28-2.49-.13-.59-.53-.79-1.07-.5-.29.15-.56.36-.8.58-.68.61-1.19 1.36-1.68 2.13-.03.04-.03.09-.05.13.23-.2.41-.43.6-.65.49-.58.99-1.17 1.64-1.58.52-.33.92-.18 1.02.43.06.37.05.75.05 1.12 0 .28-.04.55-.07.82z"/><path d="m10.99 17.92c-.55.09-.83.5-1.17.83-1.02.98-2.22 1.22-3.5.64-.44-.2-.86-.49-1.24-.8-.72-.56-1.3-1.27-1.82-2.02-.27-.39-.23-.72.11-1.06.43-.42.96-.63 1.53-.74 1.19-.23 2.35-.2 3.5.26.34.14.73.18 1.1.26.06.01.16.01.18.04.17.38.65.57.62 1.08-.03.53.16.85.69 1.51zm-4.58.16c.01-.02.02-.05.03-.07-.34-.25-.69-.48-1-.75-.23-.2-.45-.42-.62-.67-.22-.32-.16-.58.18-.77.24-.13.52-.24.78-.26.8-.06 1.59-.08 2.39-.12h.25c-.99-.2-1.99-.33-2.99-.15-.36.06-.72.18-1.04.35-.38.2-.43.53-.19.89.31.48.73.84 1.23 1.11.33.17.66.3.98.44z"/><path d="m22.25 13.02c-.89-1-2-1.35-3.22-1.41-.46-.02-.92.11-1.38.18-.08.01-.16.05-.24.06-.18.02-.4.11-.49-.13-.08-.22.01-.44.21-.57.13-.09.29-.14.44-.18.41-.11.47-.17.46-.59-.01-.3.05-.56.28-.78.42-.42.34-.86-.19-1.13-.07-.04-.14-.07-.23-.11.71-.13 1.96.18 2.35 1.05.04.08.15.16.24.19.57.23.78.57.7 1.17-.02.17.04.26.17.36.55.43.92.96.93 1.69-.01.04-.02.09-.03.2zm-1.73-2.03c.35-.14.5-.4.43-.69-.07-.31-.34-.51-.65-.49-.3.02-.5.22-.53.55.24-.16.48-.33.75-.09.24.2.16.44 0 .72zm-.28-.48c-.1-.07-.16-.15-.21-.15-.06 0-.1.09-.16.14.05.05.1.13.15.14.06.01.12-.07.22-.13z"/><path d="m10.81 11.82c-.02.14-.04.23-.04.32-.01.36.21.6.57.61.13.01.26-.03.38.01.21.07.46.13.58.28.26.32.56.36.91.27.1-.02.21-.08.31-.09.1 0 .2.04.31.07-.04.11-.05.25-.13.32-.26.23-.57.41-.81.66-.97.99-1.46 2.16-1.27 3.57 0 .03-.01.07-.02.14-.46-.31-.68-.74-.79-1.23-.05-.22-.06-.46-.06-.7 0-.16-.03-.26-.19-.34-.51-.28-.66-.76-.44-1.31.04-.09.06-.22.03-.3-.25-.73-.07-1.36.41-1.93.04-.05.08-.1.12-.15.03-.06.06-.11.13-.2zm.14 3.64c.39-.16.54-.44.45-.75s-.4-.5-.71-.44c-.29.06-.47.27-.43.53.21-.18.44-.32.7-.11.25.22.19.48-.01.77zm-.26-.49c-.1-.08-.15-.16-.2-.16s-.13.08-.14.14c-.01.04.07.13.12.14.04 0 .11-.06.22-.12z"/><path d="m11.23 11.1c.21-.2.39-.44.63-.58.51-.32.93-.69 1.18-1.25.16-.35.49-.52.86-.51.99.05 1.95-.1 2.9-.36.19-.05.4-.01.54-.01-.42.22-.87.47-1.34.68-.25.11-.53.14-.8.2-.08.02-.16.01-.24.02-.6.08-.7.24-.52.82.01.04.02.08.03.13-.04 0-.07.01-.09 0-.57-.37-1.09-.21-1.61.12-.48.29-.98.56-1.46.83-.04-.04-.06-.06-.08-.09z"/></g></svg>