<svg enable-background="new 0 0 180.67 179.93" viewBox="0 0 180.67 179.93" xmlns="http://www.w3.org/2000/svg"><path d="m26.09 0c-14 0-25.34 11.35-25.34 25.34v129.24c0 13.99 11.35 25.34 25.34 25.34h129.24c14 0 25.34-11.35 25.34-25.34v-129.24c0-14-11.35-25.34-25.34-25.34z"/><path d="m111.15 6.84h-30.19v86.98c0 9.61 0 22.5-15.96 22.5-14.23 0-17.5-9.61-17.5-22.88v-6.15h-27.3v11.92c0 30 22.31 42.49 45.19 42.49 40.96 0 45.76-28.84 45.76-46.53z" fill="#d2232a"/><path d="m0 86.78h70.74v1.44h-70.74z" fill="#d2232a"/><g fill="#fff"><path d="m29.53 40.89h-5.91v29.23c0 3.92-2.55 4.74-4 4.74-1.21 0-2.43-.66-3.24-1.43l-4.63 3.53c1.45 1.54 3.94 3.53 7.7 3.53 6.31 0 10.08-4.41 10.08-9.6zm22.29 19.8c0-2.1 1.1-3.2 2.9-3.2s2.89 1.1 2.89 3.2v3.2h-5.79zm11.7-.11c0-4.91-3.36-8.71-8.8-8.71-2.26 0-4.46.77-5.91 1.99-1.56-1.27-3.42-1.99-5.85-1.99-5.33 0-8.74 3.48-9.09 8.44h5.73c.35-1.82 1.85-2.81 3.36-2.81 2.2 0 2.96 1.43 2.96 3.31v2.92c-1.22-.05-2.03-.17-2.84-.17-7.41 0-9.32 3.09-9.32 9.49 0 6.18 3.65 7.44 6.37 7.44 2.89 0 5.5-1.32 6.89-3.97 1.16 2.15 3.82 4.03 7.7 3.97 5.15-.05 8.8-3.58 8.8-8.44h-5.91c-.12 1.21-.64 2.81-2.89 2.81-1.79 0-2.9-.99-2.9-2.76v-3.8h11.7zm-17.6 11.36c0 2.26-1.22 3.59-3.18 3.59-1.91 0-3.07-1.43-3.07-3.59 0-2.98 2.08-3.97 4.63-3.97.52 0 .98.06 1.62.17zm21.94 8.22h5.91v-16.6c0-4.58 3.53-6.07 6.02-6.07.64 0 1.22.11 1.8.33v-5.96c-3.42 0-5.39 1.27-7.82 3.31v-2.97h-5.91zm16.1 0h5.91v-18.81c0-2.48.75-3.86 2.95-3.86 1.85 0 2.9 1.27 2.9 3.31v19.36h5.91v-21.45c0-5.02-3.13-6.84-6.08-6.84-2.72 0-4.34 1.27-5.56 3.03h-.12v-2.7h-5.91zm24.9-36.4c0 3.03 2.67 5.63 5.91 5.63s5.91-2.54 5.91-5.63c0-3.03-2.67-5.63-5.91-5.63s-5.91 2.54-5.91 5.63m2.38 0c0-1.88 1.56-3.36 3.53-3.36s3.53 1.49 3.53 3.36c0 1.88-1.56 3.36-3.53 3.36s-3.53-1.48-3.53-3.36m6.43 36.4h5.91v-19.47c0-5.85-3.94-8.83-8.86-8.83-2.66 0-4.86.88-6.43 2.37-1.56 1.49-2.49 3.58-2.67 6.07h5.73c.35-1.82 1.85-2.81 3.36-2.81 2.2 0 2.95 1.43 2.95 3.31v2.92c-1.22-.05-2.03-.17-2.84-.17-7.41 0-9.33 3.09-9.33 9.49 0 6.18 3.65 7.44 6.37 7.44 2.84 0 4.11-1.16 5.67-3.2h.12v2.88zm0-8.22c0 2.26-1.22 3.59-3.18 3.59-1.91 0-3.07-1.43-3.07-3.59 0-2.98 2.08-3.97 4.63-3.97.52 0 .98.06 1.62.17zm10.25-19.74h-2.95v4.41h2.95v16.99c0 2.98 1.8 6.56 7.12 6.56h2.43v-5.3c-2.61 0-3.65-.16-3.65-2.76v-15.5h3.65v-4.4h-3.65v-8.49h-5.91v8.49zm11.81 0h-2.95v4.41h2.95v16.99c0 2.98 1.79 6.56 7.12 6.56h2.43v-5.3c-2.61 0-3.65-.16-3.65-2.76v-15.5h3.65v-4.4h-3.65v-8.49h-5.91v8.49zm14.19-8.44c0 3.03 2.67 5.63 5.91 5.63s5.91-2.54 5.91-5.63c0-3.03-2.66-5.63-5.91-5.63s-5.91 2.54-5.91 5.63m2.37 0c0-1.88 1.56-3.36 3.53-3.36s3.53 1.49 3.53 3.36c0 1.88-1.56 3.36-3.53 3.36-1.96 0-3.53-1.48-3.53-3.36m6.43 36.4h5.9v-19.47c0-5.85-3.94-8.83-8.86-8.83-2.66 0-4.86.88-6.43 2.37-1.56 1.49-2.49 3.58-2.66 6.07h5.73c.35-1.82 1.85-2.81 3.36-2.81 2.2 0 2.96 1.43 2.96 3.31v2.92c-1.22-.05-2.03-.17-2.84-.17-7.41 0-9.32 3.09-9.32 9.49 0 6.18 3.65 7.44 6.37 7.44 2.84 0 4.11-1.16 5.68-3.2h.12v2.88zm0-8.22c0 2.26-1.22 3.59-3.19 3.59-1.91 0-3.07-1.43-3.07-3.59 0-2.98 2.08-3.97 4.63-3.97.52 0 .99.06 1.62.17v3.8z"/><path d="m115.95 168.5c-2.04.09-3.61-.57-4.87-1.91-2-2.22-2.61-5.05-2.96-7.87-.13-1.09-.13-2.18-.26-3.26-.09-.52-.26-1.04-.57-1.52-4.52-7.48-4-17.1 1.35-24.01 2-2.61 4.7-4.18 7.66-5.44 1.39-.61 2.91-.87 4.31-1.52 1.48-.7 2.87-1.61 4.26-2.44 7.22-4.13 14.22-3.44 21.01 1.04 3.96 2.65 6.66 6.31 8.18 10.88.26.83 1.13 1.44 1.7 2.13 1.48 1.83 3.13 3.57 4.39 5.57 1.31 2.04 1.61 4.39.39 6.7-.22.44-.57.83-.96 1.44-.3-.52-.48-.91-.74-1.22-1.04-1.26-1.91-2.7-3.18-3.74-2.74-2.31-5.79-2.04-8.79-.44-3.05 1.65-6 3.52-9 5.26-3.31 1.87-6.74 3.44-10.4 4.57-2.7.87-5.39 1.83-8.05 2.96-3.92 1.65-5.52 5.09-4.57 9.44.36 1.03.75 2.12 1.1 3.38zm20.66-49.16c.17.26.35.48.52.74 1.44 1.91 1.13 3.39-.48 4.7-1.91 1.57-1.87 4.31-.13 6.26 1.13 1.26 2.96 1.48 4.35.52 2.04-1.44 2.91-4.09 2.13-6.44-1-3.08-3.43-4.69-6.39-5.78zm-27.93 12.88c-1.13 2.18-1 5.92-.26 7.74 1.09 2.61 3.78 4.13 6.53 3.61 1.65-.3 2.65-1.44 2.83-3 .22-2.7-2.35-5.13-5-4.74-2.35.35-3.31-.3-3.83-2.61-.09-.22-.18-.48-.27-1z"/><path d="m143.92 167.06c-1.48-.48-2.44.39-3.44 1.65-3.22 3.96-7.48 5.22-12.4 4.31-2.96-.57-5.7-1.7-8.09-3.52-4.13-3.18-3.83-9.14.61-11.88 1.17-.74 2.57-1.13 3.83-1.74 3.05-1.44 6.09-2.87 9.14-4.31.91-.44 1.87-.78 2.78-1.22 3.26-1.57 6.57-3.13 9.79-4.79 2.39-1.22 4.79-1.74 7.35-.74 3.22 1.26 4.74 4.05 4.35 8-.39 3.61-1.65 6.92-3.96 9.74-2.57 3.02-5.79 4.55-9.96 4.5z"/><path d="m150.53 119.56c-.13-.74-.17-1.22-.35-1.65-.48-1.17-.74-2.65-1.61-3.44-1.87-1.65-2.52-3.78-3-6.05-.04-.26 0-.61.13-.87.96-2 1.96-3.96 2.87-5.96 2.78-6.13 6.74-11.14 13.27-13.66.91-.35 2-.39 3-.44 1.31 0 2.26.7 2.61 1.96 1.57 5.44 2.44 10.92 1.52 16.53-1.26 7.44-5.61 11.4-13.27 12.05-1.78.22-3.52.22-5.17 1.53zm12.92-14.92c.13 0 .22 0 .35.04 1.44-3.48 2.09-7.05 1.22-10.83-.57-2.57-2.31-3.44-4.65-2.18-1.26.65-2.44 1.57-3.48 2.52-2.96 2.65-5.18 5.92-7.31 9.27-.13.17-.13.39-.22.57 1-.87 1.78-1.87 2.61-2.83 2.13-2.52 4.31-5.09 7.13-6.87 2.26-1.44 4-.78 4.44 1.87.26 1.61.22 3.26.22 4.87-.01 1.22-.18 2.39-.31 3.57z"/><path d="m100.07 143.14c-2.39.39-3.61 2.18-5.09 3.61-4.44 4.26-9.66 5.31-15.23 2.78-1.91-.87-3.74-2.13-5.39-3.48-3.13-2.44-5.66-5.52-7.92-8.79-1.17-1.7-1-3.13.48-4.61 1.87-1.83 4.18-2.74 6.66-3.22 5.18-1 10.22-.87 15.23 1.13 1.48.61 3.18.78 4.79 1.13.26.04.7.04.78.17.74 1.65 2.83 2.48 2.7 4.7-.14 2.31.68 3.71 2.99 6.58zm-19.92.69c.04-.09.09-.22.13-.3-1.48-1.09-3-2.09-4.35-3.26-1-.87-1.96-1.83-2.7-2.91-.96-1.39-.7-2.52.78-3.35 1.04-.57 2.26-1.04 3.39-1.13 3.48-.26 6.92-.35 10.4-.52h1.09c-4.31-.87-8.66-1.44-13.01-.65-1.57.26-3.13.78-4.52 1.52-1.65.87-1.87 2.31-.83 3.87 1.35 2.09 3.18 3.65 5.35 4.83 1.44.73 2.87 1.29 4.27 1.9z"/><path d="m149.05 121.82c-3.87-4.35-8.7-5.87-14.01-6.13-2-.09-4 .48-6 .78-.35.04-.7.22-1.04.26-.78.09-1.74.48-2.13-.57-.35-.96.04-1.91.91-2.48.57-.39 1.26-.61 1.91-.78 1.78-.48 2.04-.74 2-2.57-.04-1.31.22-2.44 1.22-3.39 1.83-1.83 1.48-3.74-.83-4.92-.3-.17-.61-.3-1-.48 3.09-.57 8.53.78 10.22 4.57.17.35.65.7 1.04.83 2.48 1 3.39 2.48 3.05 5.09-.09.74.17 1.13.74 1.57 2.39 1.87 4 4.18 4.05 7.35-.04.17-.09.39-.13.87zm-7.52-8.83c1.52-.61 2.18-1.74 1.87-3-.3-1.35-1.48-2.22-2.83-2.13-1.31.09-2.18.96-2.31 2.39 1.04-.7 2.09-1.44 3.26-.39 1.05.87.7 1.91.01 3.13zm-1.22-2.09c-.43-.3-.7-.65-.91-.65-.26 0-.44.39-.7.61.22.22.44.57.65.61.26.04.52-.31.96-.57z"/><path d="m99.29 116.6c-.09.61-.17 1-.17 1.39-.04 1.57.91 2.61 2.48 2.65.57.04 1.13-.13 1.65.04.91.3 2 .57 2.52 1.22 1.13 1.39 2.44 1.57 3.96 1.17.44-.09.91-.35 1.35-.39.44 0 .87.17 1.35.3-.17.48-.22 1.09-.57 1.39-1.13 1-2.48 1.78-3.52 2.87-4.22 4.31-6.35 9.4-5.52 15.53 0 .13-.04.3-.09.61-2-1.35-2.96-3.22-3.44-5.35-.22-.96-.26-2-.26-3.05 0-.7-.13-1.13-.83-1.48-2.22-1.22-2.87-3.31-1.91-5.7.17-.39.26-.96.13-1.31-1.09-3.18-.3-5.92 1.78-8.4.17-.22.35-.44.52-.65.13-.23.26-.45.57-.84zm.6 15.84c1.7-.7 2.35-1.91 1.96-3.26s-1.74-2.18-3.09-1.91c-1.26.26-2.04 1.17-1.87 2.31.91-.78 1.91-1.39 3.05-.48 1.09.94.82 2.07-.05 3.34zm-1.13-2.14c-.44-.35-.65-.7-.87-.7s-.57.35-.61.61c-.04.17.3.57.52.61.18.01.49-.26.96-.52z"/><path d="m101.11 113.47c.91-.87 1.7-1.91 2.74-2.52 2.22-1.39 4.05-3 5.13-5.44.7-1.52 2.13-2.26 3.74-2.22 4.31.22 8.48-.44 12.62-1.57.83-.22 1.74-.04 2.35-.04-1.83.96-3.78 2.04-5.83 2.96-1.09.48-2.31.61-3.48.87-.35.09-.7.04-1.04.09-2.61.35-3.05 1.04-2.26 3.57.04.17.09.35.13.57-.17 0-.3.04-.39 0-2.48-1.61-4.74-.91-7 .52-2.09 1.26-4.26 2.44-6.35 3.61-.18-.18-.27-.27-.36-.4z"/></g></svg>