<svg enable-background="new 0 0 30 30" viewBox="0 0 30 30" xmlns="http://www.w3.org/2000/svg"><g fill="#fff"><path d="m17.78 8.88c.51.5 1.2.77 1.93.77.65 0 1.26-.22 1.75-.61l-3.85-3.69c-.9 1.01-.84 2.55.17 3.53"/><path d="m21.64 5.16c-.52-.5-1.2-.77-1.93-.77-.65 0-1.26.22-1.75.61l3.85 3.69c.89-1.02.83-2.57-.17-3.53"/><path d="m8.17 17.67c-.61.63-.77 1.51-.4 2.3s1.15 1.28 2.05 1.28h2.36v.01l6.06-.01c.51 0 .98.19 1.34.53.37.35.57.81.57 1.31 0 1.01-.86 1.83-1.91 1.85l.01.66c.7-.01 1.35-.27 1.84-.75.49-.47.76-1.1.76-1.76 0-.67-.27-1.3-.77-1.78-.49-.46-1.15-.72-1.84-.72h-.01-1.89-6.52c-.74 0-1.22-.46-1.42-.89s-.23-1.07.28-1.59l.03-.03.38-.38c.12.05.26.08.4.08.27 0 .53-.1.72-.29.48-.46.98-.9 1.49-1.33l7.56-6.23h-.01c-.66-.09-1.26-.38-1.74-.84-.46-.44-.75-1-.86-1.57 0 0 0 0 0-.01l-6.57 7.23c-.4.45-.83.88-1.27 1.3l-.04.08c-.32.31-.38.78-.18 1.15l-.38.37c-.02.01-.03.03-.04.03"/></g></svg>